<?xml version="1.0" encoding="UTF-8"?>
<svg xmlns="http://www.w3.org/2000/svg" xmlns:xlink="http://www.w3.org/1999/xlink" width="16px" height="16px" viewBox="0 0 16 16" version="1.1">
<g id="surface1">
<path style=" stroke:none;fill-rule:nonzero;fill:rgb(29.411765%,29.411765%,29.411765%);fill-opacity:1;" d="M 14.53125 8.488281 C 13.628906 4.894531 10.140625 3.542969 9.835938 3.214844 L 10.691406 0.09375 C 10.691406 0.09375 9.621094 -0.253906 8.117188 0.390625 C 6.207031 1.210938 5.144531 0.167969 5.144531 0.167969 L 6.085938 3.265625 C 5.792969 3.601562 2.082031 5.109375 1.410156 8.660156 C 0.828125 11.710938 2.644531 16.070312 8.0625 16 C 13.484375 15.929688 15.289062 11.503906 14.53125 8.488281 Z M 10.546875 8.792969 L 10.546875 9.644531 L 8.792969 9.644531 L 8.5 10.101562 L 8.5 10.644531 L 10.546875 10.644531 L 10.546875 11.496094 L 8.5 11.496094 L 8.5 12.980469 L 7.5 12.980469 L 7.5 11.496094 L 5.453125 11.496094 L 5.453125 10.644531 L 7.5 10.644531 L 7.5 10.101562 L 7.207031 9.644531 L 5.453125 9.644531 L 5.453125 8.792969 L 6.660156 8.792969 L 5.226562 6.5625 L 6.246094 6.5625 L 8 9.289062 L 9.753906 6.5625 L 10.773438 6.5625 L 9.339844 8.792969 Z M 10.546875 8.792969 "/>
</g>
</svg>
